# xmcd
#
# Track frame offsets: 
#        150
#        29922
#        53522
#        71092
#        91822
#        117757
#        133557
#        159780
#        186850
#        209440
#        235972
#        259667
#        284542
#
# Disc length: 4153 seconds
#
# Revision: 0
# Processed by: cddbd v1.5.2PL0 Copyright (c) Steve Scherf et al.
# Submitted via: ExactAudioCopyFreeDBPlugin 1.0
#
DISCID=b810370d
DTITLE=Various Artist - VMP Dance Volume 1 Top Eurodance Hits
DYEAR=1995
DGENRE=Euro-House
TTITLE0=Mimmo Mix feat. Fabiola - Feeling (E.C.H.O. Club Mix)  
TTITLE1=NRG Faze - Tonight I Celebrate My Love (Lovers Mix) 
TTITLE2=Ken Laszlo - You're My Heart, You're My Soul 
TTITLE3=Corona - I Don't Wanna Be A Star (Lee Marrow 70's Radio Edit) 
TTITLE4=Bliss Team - Love Is Forever (Progressive Mix) 
TTITLE5=Cleo and Marcus - I've Got The Music In Me (Original Radio Mix W
TTITLE5=rap) 
TTITLE6=2-Xtreme - (I Can't Get No) Satisfaction (Extended Mix) 
TTITLE7=Karen B - Not The End (Extended Mix) 
TTITLE8=Blyzart - This Is The Time (Da Blitz Remix)  
TTITLE9=Sandy - Bad Boy (DWA Long Mix)  
TTITLE10=Orange Blue - If You Wanna Be (My Love)  
TTITLE11=DJ Maxx - You're In The Army Now (Mamma Gamma Mix)  
TTITLE12=Ethik - My Heaven (P.Y.N.O. Mix)  
EXTD=
EXTT0=
EXTT1=
EXTT2=
EXTT3=
EXTT4=
EXTT5=
EXTT6=
EXTT7=
EXTT8=
EXTT9=
EXTT10=
EXTT11=
EXTT12=
PLAYORDER=
